<?xml version="1.0" standalone="no"?>
<!DOCTYPE svg PUBLIC "-//W3C//DTD SVG 20010904//EN"
 "http://www.w3.org/TR/2001/REC-SVG-20010904/DTD/svg10.dtd">
<svg version="1.0" xmlns="http://www.w3.org/2000/svg"
 width="975.000000pt" height="975.000000pt" viewBox="0 0 975.000000 975.000000"
 preserveAspectRatio="xMidYMid meet">
<metadata>
Created by potrace 1.14, written by Peter Selinger 2001-2017
</metadata>
<g transform="translate(0.000000,975.000000) scale(0.100000,-0.100000)"
fill="#000000" stroke="none">
<path d="M2579 8726 c-1 -6 -2 -1535 -3 -3397 l-1 -3385 395 0 395 1 0 1145 1
1145 99 130 c55 72 103 135 107 140 5 6 67 87 138 180 71 94 133 175 137 180
5 6 29 37 53 70 25 33 53 69 62 80 10 11 23 28 30 38 12 16 35 -14 228 -300
118 -175 218 -322 222 -328 5 -5 59 -86 122 -180 139 -207 418 -620 600 -888
l134 -198 -30 -82 c-27 -72 -51 -147 -62 -197 -2 -8 -11 -42 -19 -75 -26 -100
-29 -117 -32 -213 -6 -198 60 -315 211 -371 112 -42 319 -32 464 23 25 10 51
18 58 19 7 1 61 -70 121 -158 l109 -160 441 -1 c350 0 441 2 437 12 -3 7 -120
184 -260 393 -141 209 -256 384 -256 389 0 5 17 27 38 49 73 78 144 157 265
297 10 12 28 32 40 46 12 14 47 54 77 90 30 35 69 80 87 100 17 19 42 49 54
65 13 17 28 35 34 41 5 6 29 33 52 60 23 27 50 59 60 70 10 12 36 43 58 70 22
26 45 52 50 58 6 6 33 38 60 71 67 81 97 115 116 134 9 9 37 43 64 76 61 76
117 145 130 159 41 44 147 190 156 215 13 36 -2 71 -30 71 -20 0 -144 -131
-302 -320 -57 -69 -106 -127 -109 -130 -3 -3 -30 -34 -60 -70 -30 -36 -59 -70
-65 -76 -5 -6 -32 -37 -60 -70 -85 -100 -206 -237 -259 -294 -28 -31 -80 -89
-116 -130 -36 -41 -85 -97 -109 -125 -25 -27 -107 -112 -183 -188 l-139 -139
-37 54 c-21 29 -123 181 -229 338 l-191 286 138 204 c309 457 351 521 438 667
51 83 92 156 92 162 0 5 3 11 8 13 14 6 90 164 121 251 52 149 54 308 4 385
-35 54 -112 96 -270 147 -144 47 -238 90 -311 142 l-47 33 -2 73 c-3 149 -29
242 -85 297 -58 59 -111 70 -165 35 -81 -53 -50 -246 60 -371 l39 -44 -33 -57
c-68 -120 -208 -352 -271 -448 -112 -173 -355 -503 -370 -504 -6 -1 -297 425
-333 487 -5 9 -12 19 -15 22 -3 3 -45 66 -95 140 -49 74 -93 137 -97 138 -5 2
-8 7 -8 11 0 7 -80 129 -199 303 l-32 47 92 123 c51 68 95 125 99 128 3 3 17
21 30 40 14 19 30 42 37 50 27 34 143 185 223 290 47 61 105 137 130 169 25
31 54 70 65 85 11 16 25 33 30 40 6 6 53 67 105 136 52 69 119 157 150 196 30
38 64 83 75 98 11 16 25 33 31 40 5 6 37 47 70 91 32 44 65 86 71 95 17 21
267 346 306 398 17 24 37 48 42 55 6 7 24 30 40 52 17 22 32 42 36 45 3 3 25
32 49 65 24 33 54 71 67 85 13 14 23 28 23 32 0 3 6 13 13 20 12 13 144 184
268 348 35 47 66 87 69 90 3 3 19 23 36 45 56 74 129 170 156 206 l27 36 -429
1 -429 0 -33 -41 c-18 -22 -42 -52 -53 -67 -25 -34 -76 -101 -90 -116 -5 -7
-19 -24 -30 -39 -16 -22 -368 -475 -489 -630 -27 -34 -272 -351 -308 -397 -25
-34 -251 -324 -271 -348 -7 -9 -25 -33 -42 -55 -16 -22 -34 -45 -40 -51 -5 -6
-19 -23 -30 -39 -11 -15 -31 -42 -46 -59 -14 -17 -54 -69 -90 -116 -36 -47
-125 -161 -198 -255 -72 -93 -143 -183 -155 -200 -46 -59 -467 -602 -538 -693
-40 -52 -89 -114 -108 -139 -19 -25 -49 -62 -65 -82 l-31 -38 0 1681 0 1681
-392 1 c-286 1 -392 -1 -393 -10z m3591 -3346 c98 -64 124 -87 153 -131 48
-73 55 -207 17 -319 -25 -75 -40 -102 -153 -277 -26 -40 -47 -77 -47 -82 0 -5
-4 -11 -9 -13 -4 -1 -21 -25 -37 -53 -37 -63 -92 -150 -171 -272 -35 -52 -63
-97 -63 -99 0 -2 -17 -30 -38 -62 -21 -31 -57 -86 -79 -121 l-41 -63 -93 138
c-51 77 -134 200 -184 275 l-92 137 29 38 c16 22 39 53 52 69 334 427 474 621
601 832 27 45 52 78 55 74 3 -5 48 -37 100 -71z m-540 -2720 c0 -5 3 -10 8
-12 4 -1 40 -51 79 -109 l71 -105 -31 -14 c-162 -69 -234 -75 -287 -22 -11 11
-15 39 -17 96 -1 81 21 183 62 279 l16 39 50 -72 c27 -39 49 -75 49 -80z"/>
</g>
</svg>
