<svg width="413" height="151" viewBox="0 0 413 151" fill="none" xmlns="http://www.w3.org/2000/svg">
<path d="M31.7936 48.7562L32.0412 40.5846L68.5658 95H56.6179L25.4173 48.8181L30.865 49.4991L18.4838 65.7185L19.5981 58.8469V95H9.01221V3.68865H19.5981V53.8944L17.4933 51.6658L54.7607 3.68865H66.3372L31.7936 48.7562ZM83.165 12.9745L87.9317 6.96967V48.1991L85.3317 44.5466H120.37V53.8325H85.3317L87.9317 50.1801V91.719L83.165 85.7141H127.242V95H77.3458V3.68865H127.242V12.9745H83.165ZM150.636 95H140.359V3.68865H157.631L196.384 88.9332L195.579 89.4285V3.68865H205.856V95H188.336L149.707 9.87925L150.636 9.4459V95ZM218.97 95V3.68865H241.875C247.901 3.68865 253.328 4.74105 258.157 6.84586C263.027 8.95066 267.174 11.9841 270.6 15.946C274.067 19.8668 276.729 24.6541 278.586 30.3082C280.443 35.921 281.372 42.2561 281.372 49.3134C281.372 56.3707 280.443 62.7263 278.586 68.3804C276.729 73.9932 274.067 78.7806 270.6 82.7426C267.174 86.7046 263.027 89.738 258.157 91.8428C253.328 93.9476 247.901 95 241.875 95H218.97ZM229.618 91.719L224.851 85.7141H240.637C246.498 85.7141 251.677 84.249 256.176 81.3188C260.716 78.3473 264.265 74.1377 266.824 68.69C269.382 63.2422 270.662 56.7834 270.662 49.3134C270.662 41.8021 269.382 35.3433 266.824 29.9368C264.265 24.4891 260.716 20.3001 256.176 17.3699C251.677 14.4397 246.498 12.9745 240.637 12.9745H224.851L229.618 6.96967V91.719ZM284.008 95L309.142 3.44102H325.609L350.557 95H339.662L317.314 10.3126H317.438L294.904 95H284.008ZM297.009 70.7948V61.5089H337.743V70.7948H297.009ZM359.748 95V3.68865H370.334V91.719L365.568 85.7141H406.364V95H359.748Z" fill="#B3D3E8"/>
<path d="M88.6279 129.258C86.7509 129.258 85.3886 128.773 84.541 127.805C83.7539 126.896 83.3603 125.685 83.3603 124.172C83.3603 123.203 83.542 122.053 83.9053 120.721C84.3896 118.662 85.207 116.422 86.3574 114C87.5683 111.639 88.6279 109.762 89.5361 108.369C90.2626 107.279 90.9892 106.159 91.7158 105.009C92.4423 103.858 93.1991 102.678 93.9863 101.467L98.4364 94.3829C99.2841 93.0509 99.7079 91.7189 99.7079 90.3868C99.7079 88.9337 99.1327 87.8136 97.9823 87.0265L96.7108 86.2091C96.2265 85.9064 95.8632 85.6339 95.621 85.3918L94.3495 87.4806L93.0781 89.4787C91.8066 91.2345 90.3535 93.172 88.7187 95.2911C87.0839 97.4102 85.5097 99.4386 83.9961 101.376C82.4824 103.314 81.2109 104.857 80.1816 106.008C80 106.189 79.8184 106.28 79.6367 106.28C79.334 106.28 79.1221 106.129 79.001 105.826C78.8193 105.523 78.8496 105.251 79.0918 105.009C81.4531 102.345 83.7236 99.6202 85.9033 96.8351C88.1435 93.9894 90.1718 91.0226 91.9882 87.9347L93.0781 86.1183L94.1679 84.2111C93.6835 83.9084 93.2294 83.3635 92.8056 82.5763C92.3818 81.7287 92.1699 80.9416 92.1699 80.215C92.1699 79.1857 92.5937 78.5803 93.4413 78.3986H93.5322C94.1376 78.3986 94.7431 78.7619 95.3485 79.4885C95.954 80.3361 96.2265 81.8801 96.1659 84.1203C97.619 85.2101 99.0419 85.9367 100.434 86.3C101.827 86.6632 102.947 87.1173 103.795 87.6623C104.703 88.1466 105.157 89.1154 105.157 90.5685C105.157 90.8107 105.127 91.0831 105.066 91.3859C105.066 91.6886 105.036 91.9913 104.975 92.2941C104.673 93.7472 103.886 95.5333 102.614 97.6524C101.403 99.7716 100.041 101.951 98.5272 104.191C97.0136 106.371 95.7118 108.278 94.622 109.913C93.5322 111.669 92.3818 113.576 91.1708 115.635C89.9599 117.754 88.9609 119.752 88.1738 121.629C87.4472 123.506 87.205 124.989 87.4472 126.079C87.6289 126.685 88.0527 126.987 88.7187 126.987C89.6874 126.987 90.8681 126.594 92.2607 125.807C94.1376 124.717 95.8632 123.536 97.4374 122.265C99.0116 121.054 100.646 119.601 102.342 117.905C103.25 116.997 104.4 115.726 105.793 114.091C107.246 112.517 108.76 110.821 110.334 109.005C111.908 107.128 113.361 105.433 114.693 103.919C115.238 103.192 115.844 102.466 116.51 101.739L118.326 99.7413C118.508 99.5596 118.659 99.4688 118.78 99.4688C119.143 99.4688 119.325 99.711 119.325 100.195C119.325 100.377 119.174 100.68 118.871 101.104C118.265 101.951 117.569 102.829 116.782 103.737C116.055 104.646 115.359 105.493 114.693 106.28C113.119 108.097 111.363 110.155 109.426 112.456C107.549 114.696 105.641 116.906 103.704 119.086C101.827 121.266 100.011 123.143 98.2548 124.717C96.8622 125.928 95.4091 126.987 93.8954 127.895C92.3818 128.804 90.6259 129.258 88.6279 129.258ZM121.126 127.078C118.765 127.078 116.949 126.109 115.677 124.172C114.406 122.295 113.77 119.601 113.77 116.089C113.77 115.483 113.8 114.878 113.861 114.272C113.861 113.667 113.891 113.031 113.952 112.365C114.315 109.398 115.223 106.159 116.676 102.648C118.19 99.1358 120.491 95.3819 123.579 91.3859C125.637 88.7218 127.877 86.7238 130.299 85.3918C132.721 84.0597 135.052 83.3937 137.292 83.3937C138.867 83.3937 140.259 83.6965 141.47 84.3019C142.923 85.089 143.65 86.5119 143.65 88.5705C143.65 90.0841 143.105 91.7794 142.015 93.6564C140.925 95.4728 139.079 97.2286 136.475 98.9239C133.024 101.104 130.148 102.557 127.847 103.283C125.546 104.01 123.7 104.403 122.307 104.464C121.823 105.13 121.338 106.189 120.854 107.643C120.37 109.035 119.946 110.519 119.583 112.093C119.28 113.606 119.068 114.969 118.947 116.18C118.947 116.422 118.917 116.664 118.856 116.906C118.856 117.209 118.856 117.512 118.856 117.814C118.856 119.631 119.159 121.175 119.764 122.446C120.43 123.778 121.581 124.444 123.215 124.444C124.668 124.444 126.303 123.899 128.12 122.81C129.936 121.78 131.722 120.509 133.478 118.995C135.294 117.542 136.869 116.119 138.201 114.727C139.593 113.395 140.562 112.396 141.107 111.73L147.827 103.919L151.46 99.7413C151.642 99.5596 151.793 99.4688 151.914 99.4688C152.278 99.4688 152.459 99.711 152.459 100.195C152.459 100.377 152.308 100.68 152.005 101.104C151.4 101.951 150.703 102.829 149.916 103.737C149.19 104.646 148.494 105.493 147.827 106.28C146.98 107.249 145.92 108.49 144.649 110.004C143.438 111.518 142.136 113.092 140.744 114.727C139.412 116.361 138.11 117.784 136.838 118.995C134.538 121.235 132.055 123.143 129.391 124.717C126.788 126.291 124.033 127.078 121.126 127.078ZM123.125 103.011C123.972 102.95 125.032 102.617 126.303 102.012C127.575 101.406 128.907 100.68 130.299 99.8321C131.692 98.9845 132.963 98.1368 134.114 97.2892C135.325 96.381 136.293 95.6241 137.02 95.0187C138.413 93.9288 139.442 92.7179 140.108 91.3859C140.774 90.0538 141.107 88.9035 141.107 87.9347C141.107 87.2687 140.925 86.6935 140.562 86.2091C140.259 85.7248 139.775 85.4826 139.109 85.4826C137.837 85.4826 136.445 86.1183 134.931 87.3898C133.478 88.6007 131.995 90.1749 130.481 92.1124C129.028 93.9894 127.635 95.9269 126.303 97.9249C125.032 99.8624 123.972 101.558 123.125 103.011ZM141.855 142.608C140.886 142.608 140.038 142.215 139.312 141.428C138.525 140.701 138.131 139.551 138.131 137.976C138.131 135.373 138.948 132.86 140.583 130.438C142.157 128.077 144.216 125.867 146.759 123.809C149.241 121.75 151.905 119.903 154.751 118.269C157.657 116.634 160.412 115.271 163.016 114.182C163.924 112.305 164.983 109.913 166.194 107.007C167.466 104.101 168.737 101.073 170.009 97.9249C171.341 94.7159 172.491 91.6583 173.46 88.7521C174.429 85.8459 175.064 83.4543 175.367 81.5773C174.52 83.3937 173.399 85.4826 172.007 87.8439C170.675 90.2052 169.191 92.506 167.557 94.7462C165.982 96.9864 164.378 98.8331 162.743 100.286C161.169 101.739 159.686 102.466 158.293 102.466C156.356 102.466 155.024 101.86 154.297 100.649C153.57 99.4386 153.207 97.9854 153.207 96.2901C153.207 93.9894 153.661 91.5675 154.569 89.0246C155.478 86.4211 156.567 83.9084 157.839 81.4865C159.171 79.0646 160.412 76.9455 161.563 75.1291C160.654 75.3713 159.655 75.4924 158.566 75.4924C156.991 75.4924 155.478 75.1897 154.025 74.5842C152.632 73.9787 151.572 73.1008 150.846 71.9504C150.361 71.1028 150.119 70.5276 150.119 70.2248C150.059 70.1038 150.089 70.0432 150.21 70.0432C150.21 70.0432 150.422 70.1946 150.846 70.4973C151.815 71.5266 153.026 72.3743 154.479 73.0403C155.932 73.7063 157.567 74.0393 159.383 74.0393C159.867 74.0393 160.382 74.009 160.927 73.9485C161.532 73.8879 162.107 73.7971 162.652 73.676C163.137 72.9494 163.773 71.9202 164.56 70.5881C165.286 69.3167 166.194 68.1965 167.284 67.2278C167.769 66.7434 168.223 66.5012 168.647 66.5012C169.01 66.5012 169.282 66.7132 169.464 67.137C169.706 67.5003 169.827 67.9846 169.827 68.5901C169.827 69.6194 169.524 70.8303 168.919 72.2229C168.314 73.5549 167.314 74.6447 165.922 75.4924C163.984 78.2775 162.289 81.2443 160.836 84.3927C159.383 87.5412 158.323 90.9923 157.657 94.7462C157.476 95.6544 157.385 96.4415 157.385 97.1075C157.385 99.1056 158.021 100.105 159.292 100.105C160.745 100.105 162.471 98.9239 164.469 96.5626C165.135 95.7755 166.104 94.4132 167.375 92.4757C168.647 90.5382 170.009 88.3888 171.462 86.0275C172.915 83.6056 174.217 81.214 175.367 78.8527C176.518 76.4914 177.305 74.4631 177.729 72.7678C177.85 72.0412 178.122 71.5266 178.546 71.2239C179.03 70.8606 179.515 70.6789 179.999 70.6789C180.483 70.6789 180.907 70.8 181.27 71.0422C181.634 71.2844 181.815 71.6174 181.815 72.0412C181.815 73.4944 181.634 75.2199 181.27 77.218C180.847 79.2766 180.302 81.4865 179.636 83.8478C178.97 86.2091 178.213 88.6613 177.365 91.2042C176.518 93.7472 175.64 96.1993 174.731 98.5606C173.823 100.982 172.915 103.253 172.007 105.372C171.099 107.431 170.312 109.217 169.646 110.73C171.341 109.762 172.945 108.702 174.459 107.552C176.033 106.401 177.395 105.16 178.546 103.828C179.212 103.162 179.817 102.526 180.362 101.921C180.907 101.315 181.422 100.68 181.906 100.014C182.088 99.8321 182.239 99.7413 182.36 99.7413C182.724 99.7413 182.905 100.014 182.905 100.559C182.905 100.861 182.784 101.134 182.542 101.376C181.21 103.132 179.848 104.736 178.455 106.189C177.184 107.643 175.64 109.005 173.823 110.276C172.067 111.487 170.221 112.577 168.283 113.546C166.891 116.452 165.286 119.57 163.47 122.9C161.714 126.23 159.746 129.379 157.567 132.346C155.387 135.373 152.995 137.825 150.392 139.702C147.788 141.639 144.943 142.608 141.855 142.608ZM142.127 140.519C142.793 140.519 143.55 140.247 144.398 139.702C145.245 139.157 146.184 138.431 147.213 137.522C148.061 136.735 149.029 135.766 150.119 134.616C151.209 133.466 152.208 132.346 153.116 131.256C154.025 130.226 154.63 129.47 154.933 128.985C155.962 127.411 157.052 125.564 158.202 123.445C159.413 121.326 160.624 118.995 161.835 116.452C159.413 117.542 156.961 118.874 154.479 120.448C151.996 122.022 149.695 123.748 147.576 125.625C145.457 127.562 143.762 129.56 142.49 131.619C141.158 133.678 140.492 135.766 140.492 137.886C140.492 139.641 141.037 140.519 142.127 140.519ZM199.427 114.091C198.397 114.091 197.671 113.697 197.247 112.91C196.823 112.123 196.611 111.185 196.611 110.095C196.611 108.157 197.126 105.947 198.155 103.465C199.245 100.982 200.486 98.4395 201.879 95.836C203.271 93.2325 204.482 90.7804 205.512 88.4796C206.601 86.1183 207.146 84.1203 207.146 82.4855C207.146 81.6984 206.995 81.0627 206.692 80.5783C206.45 80.0939 206.056 79.8518 205.512 79.8518C204.785 79.8518 203.907 80.2453 202.878 81.0324C201.727 81.8195 200.426 83.1213 198.973 84.9377L195.612 89.1154C193.856 91.295 192.07 93.6261 190.254 96.1085C188.498 98.5304 186.894 100.801 185.44 102.92C184.048 105.039 183.019 106.734 182.353 108.006C181.808 108.975 181.172 109.459 180.445 109.459C180.021 109.459 179.628 109.247 179.265 108.823C178.901 108.399 178.72 107.855 178.72 107.189C178.72 106.765 178.811 106.28 178.992 105.735C181.111 101.679 183.109 97.3497 184.986 92.7482C186.924 88.1466 188.831 83.9689 190.708 80.215C191.253 79.1857 192.161 78.3078 193.433 77.5813C194.704 76.7941 195.824 76.4006 196.793 76.4006C197.701 76.4006 198.155 76.7336 198.155 77.3996C198.155 77.7629 197.883 78.4592 197.338 79.4885C196.672 80.5178 195.854 81.8498 194.886 83.4845C193.917 85.1193 192.918 86.8449 191.889 88.6613C190.859 90.4777 189.891 92.2032 188.982 93.838C188.135 95.4728 187.499 96.8048 187.075 97.8341C187.741 96.9259 188.649 95.5636 189.8 93.7472C191.011 91.9308 192.645 89.8117 194.704 87.3898L197.61 83.9386C199.548 81.6379 201.334 80.0637 202.969 79.216C204.603 78.3684 206.117 77.9445 207.51 77.9445C208.599 77.9445 209.538 78.217 210.325 78.7619C211.112 79.3068 211.506 80.2453 211.506 81.5773C211.506 83.1515 211.173 84.7257 210.507 86.3C209.841 87.8136 209.296 89.0246 208.872 89.9327C208.448 90.9015 207.843 92.2335 207.056 93.9288C206.268 95.6241 205.481 97.4405 204.694 99.378C203.907 101.315 203.241 103.132 202.696 104.827C202.151 106.523 201.879 107.824 201.879 108.732C201.879 109.52 202.121 109.913 202.605 109.913C203.211 109.913 203.998 109.61 204.967 109.005C205.996 108.339 206.995 107.612 207.964 106.825C208.993 106.038 209.78 105.402 210.325 104.918C212.323 103.102 214.351 100.982 216.41 98.5606C216.713 98.1974 216.955 98.0157 217.136 98.0157C217.318 98.0157 217.409 98.1974 217.409 98.5606C217.409 98.7423 217.318 98.9845 217.136 99.2872C217.015 99.5899 216.864 99.9229 216.682 100.286C216.319 100.892 215.744 101.709 214.957 102.738C214.17 103.707 213.352 104.646 212.505 105.554C211.233 106.946 209.81 108.278 208.236 109.55C206.722 110.821 205.027 111.972 203.15 113.001C202.666 113.243 202.212 113.455 201.788 113.637C201.425 113.758 201.122 113.849 200.88 113.909C200.638 113.97 200.395 114 200.153 114C199.911 114.061 199.669 114.091 199.427 114.091ZM221.602 114.363C219.543 114.363 217.817 113.485 216.425 111.73C215.093 109.974 214.427 107.733 214.427 105.009C214.427 102.829 214.79 100.68 215.517 98.5606C216.243 96.502 217.212 94.5343 218.423 92.6573C219.694 90.7804 221.117 89.0246 222.691 87.3898C224.75 85.2707 227.081 83.424 229.685 81.8498C232.349 80.2756 234.77 79.4885 236.95 79.4885C238.645 79.4885 239.947 79.9123 240.855 80.7599C241.824 81.5471 242.308 82.5158 242.308 83.6662C242.308 84.3927 242.066 85.1798 241.582 86.0275C243.156 86.2091 244.7 86.3 246.214 86.3C247.364 86.3 248.515 86.2394 249.665 86.1183C250.815 85.9972 251.966 85.8156 253.116 85.5734H253.479C253.964 85.5734 254.206 85.6945 254.206 85.9367C254.206 86.1789 253.933 86.3908 253.389 86.5724C252.783 86.8146 251.784 87.0568 250.391 87.299C248.999 87.5412 247.546 87.7531 246.032 87.9347C244.518 88.0558 243.156 88.1164 241.945 88.1164C241.521 88.1164 241.158 88.1164 240.855 88.1164C240.553 88.1164 240.28 88.0861 240.038 88.0255L239.13 88.4796C239.856 89.5089 240.22 90.9318 240.22 92.7482C240.22 95.17 239.614 97.6524 238.403 100.195C237.253 102.678 235.709 105.009 233.771 107.189C231.894 109.308 229.866 111.033 227.686 112.365C225.567 113.697 223.539 114.363 221.602 114.363ZM222.419 112.184C224.054 112.184 225.658 111.608 227.232 110.458C228.807 109.247 230.229 107.703 231.501 105.826C232.833 103.889 233.923 101.83 234.77 99.6505C235.679 97.4102 236.284 95.2608 236.587 93.2023C236.647 92.839 236.678 92.506 236.678 92.2032C236.678 91.84 236.678 91.507 236.678 91.2042C236.678 90.6593 236.647 90.1749 236.587 89.7511C236.526 89.2667 236.405 88.9035 236.224 88.6613C236.102 88.6613 236.012 88.631 235.951 88.5705C235.225 88.4494 234.68 88.2677 234.316 88.0255C234.014 87.7833 233.65 87.5109 233.227 87.2082C232.984 86.9054 232.863 86.5421 232.863 86.1183C232.863 85.6945 233.015 85.3615 233.317 85.1193C233.681 84.8771 234.074 84.8166 234.498 84.9377C236.012 85.2404 237.646 85.5129 239.402 85.755C240.008 84.7257 240.31 83.7873 240.31 82.9396C240.31 81.4865 239.221 80.7599 237.041 80.7599C235.709 80.7599 234.316 81.2746 232.863 82.3039C231.471 83.2726 230.078 84.5744 228.686 86.2091C227.293 87.7833 225.961 89.5392 224.689 91.4767C223.418 93.3536 222.328 95.2003 221.42 97.0167C220.814 98.2276 220.27 99.711 219.785 101.467C219.361 103.223 219.149 104.918 219.149 106.553C219.149 108.066 219.392 109.398 219.876 110.549C220.421 111.639 221.269 112.184 222.419 112.184ZM243.581 129.984C242.43 129.984 241.431 129.5 240.584 128.531C239.736 127.562 239.312 126.049 239.312 123.99C239.312 122.84 239.433 121.659 239.675 120.448C240.705 114.757 242.309 108.763 244.489 102.466C246.669 96.169 249.393 89.9328 252.663 83.757C248.848 85.0285 245.7 85.6642 243.217 85.6642C242.067 85.6642 241.219 85.5734 240.674 85.3918C240.13 85.1496 239.857 84.9074 239.857 84.6652C239.857 84.3019 240.432 84.1506 241.583 84.2111C241.825 84.2716 242.037 84.3019 242.218 84.3019C242.461 84.3019 242.703 84.3019 242.945 84.3019C244.398 84.3019 246.033 84.09 247.849 83.6662C249.666 83.1818 251.603 82.5461 253.662 81.759C256.931 75.7649 260.534 70.1038 264.469 64.7757C268.465 59.387 272.734 54.6038 277.275 50.4261C278.849 49.0336 280.454 47.9437 282.088 47.1566C283.784 46.309 285.328 45.8851 286.72 45.8851C287.931 45.8851 288.96 46.2181 289.808 46.8842C290.656 47.5502 291.231 48.6703 291.534 50.2445C291.594 50.4867 291.624 50.7591 291.624 51.0619C291.685 51.3646 291.715 51.6673 291.715 51.9701C291.715 53.1205 291.473 54.3617 290.989 55.6937C289.475 59.5081 286.417 63.3528 281.816 67.2278C279.576 69.1653 277.184 70.9817 274.641 72.677C272.098 74.3723 269.434 75.9768 266.649 77.4904C263.864 79.0041 261.169 80.3058 258.566 81.3957C256.568 84.8468 254.721 88.3585 253.026 91.9308C251.331 95.503 249.878 99.0147 248.667 102.466C247.395 105.978 246.396 109.368 245.67 112.638C244.943 115.847 244.549 118.874 244.489 121.72C244.489 124.384 245.155 125.716 246.487 125.716C247.274 125.716 248.273 125.413 249.484 124.808C251.361 123.718 252.965 122.598 254.297 121.447C255.629 120.297 256.992 118.935 258.384 117.36C259.05 116.573 259.989 115.423 261.2 113.909C262.471 112.335 263.833 110.67 265.287 108.914C266.74 107.098 268.132 105.433 269.464 103.919C270.675 102.466 271.886 101.073 273.097 99.7413C273.279 99.5596 273.43 99.4688 273.551 99.4688C273.914 99.4688 274.096 99.711 274.096 100.195C274.096 100.498 273.975 100.801 273.733 101.104C273.067 101.951 272.34 102.829 271.553 103.737C270.827 104.646 270.13 105.493 269.464 106.28C269.101 106.644 268.435 107.431 267.466 108.642C266.498 109.792 265.347 111.185 264.015 112.819C262.683 114.394 261.321 115.998 259.928 117.633C258.536 119.328 257.234 120.872 256.023 122.265C254.873 123.657 253.934 124.717 253.208 125.443C251.876 126.715 250.422 127.774 248.848 128.622C247.335 129.53 245.579 129.984 243.581 129.984ZM260.019 78.9436C262.986 77.4904 266.013 75.7649 269.101 73.7668C272.189 71.7082 275.125 69.5286 277.911 67.2278C280.696 64.8665 283.087 62.4749 285.085 60.053C287.083 57.6312 288.476 55.2699 289.263 52.9691C289.505 52.2425 289.626 51.516 289.626 50.7894C289.626 48.9125 288.869 47.974 287.356 47.974C286.387 47.974 285.388 48.3978 284.359 49.2455C280.302 52.4544 276.155 56.6624 271.916 61.8694C267.678 67.0764 263.712 72.7678 260.019 78.9436ZM287.245 127.26C286.155 127.26 285.217 126.896 284.43 126.17C283.703 125.443 283.34 124.323 283.34 122.81C283.34 120.569 284.127 117.451 285.701 113.455C287.275 109.398 289.152 104.857 291.332 99.8321C290.121 101.83 288.638 103.98 286.882 106.28C285.187 108.521 283.34 110.428 281.342 112.002C279.344 113.576 277.285 114.363 275.166 114.363C273.289 114.363 271.957 113.909 271.17 113.001C270.383 112.032 269.989 110.821 269.989 109.368C269.989 108.46 270.171 107.31 270.534 105.917C270.958 104.524 271.442 103.162 271.987 101.83C272.532 100.498 273.047 99.4688 273.531 98.7423C275.045 96.2599 276.922 93.838 279.162 91.4767C281.463 89.1154 283.855 87.1779 286.337 85.6642C288.88 84.09 291.332 83.3029 293.693 83.3029C295.207 83.3029 296.751 83.6662 298.325 84.3927C299.718 81.4865 301.11 78.7316 302.503 76.1281C303.956 73.5246 305.288 71.2541 306.499 69.3167C308.497 65.926 310.313 63.3225 311.948 61.5061C313.643 59.6898 315.278 58.388 316.852 57.6009C318.487 56.8138 320.182 56.2991 321.938 56.057C317.882 61.2034 314.249 66.2893 311.04 71.3147C307.891 76.2795 304.834 81.6379 301.867 87.3898C301.988 87.7531 302.049 88.0255 302.049 88.2072C302.049 88.631 301.897 88.964 301.595 89.2062C301.352 89.4484 301.08 89.5695 300.777 89.5695C300.111 90.7804 299.294 92.4152 298.325 94.4737C297.356 96.5323 296.327 98.8028 295.237 101.285C294.147 103.707 293.088 106.189 292.059 108.732C291.029 111.275 290.182 113.667 289.516 115.907C288.607 118.692 288.153 120.66 288.153 121.811C288.153 122.416 288.335 122.719 288.698 122.719C289.485 122.719 290.878 121.629 292.876 119.449L297.144 114.908L300.051 111.73L306.771 103.919C307.377 103.253 307.982 102.557 308.588 101.83C309.193 101.104 309.768 100.407 310.313 99.7413C310.495 99.5596 310.677 99.4688 310.858 99.4688C311.222 99.4688 311.403 99.6807 311.403 100.105C311.403 100.347 311.252 100.68 310.949 101.104C310.344 101.951 309.647 102.829 308.86 103.737C308.134 104.646 307.437 105.493 306.771 106.28C306.59 106.462 306.075 107.067 305.227 108.097C304.44 109.126 303.441 110.397 302.23 111.911C301.08 113.364 299.899 114.878 298.688 116.452C297.477 118.026 296.357 119.479 295.328 120.811C294.299 122.204 293.512 123.264 292.967 123.99C292.18 125.019 291.271 125.807 290.242 126.351C289.213 126.957 288.214 127.26 287.245 127.26ZM275.802 112.184C276.831 112.184 278.345 111.396 280.343 109.822C281.614 108.854 283.037 107.522 284.611 105.826C286.246 104.131 287.79 102.466 289.243 100.831C290.696 99.1358 291.756 97.8341 292.422 96.9259C293.148 95.17 293.936 93.3536 294.783 91.4767C295.691 89.5997 296.63 87.6925 297.599 85.755C297.114 85.5129 296.569 85.3918 295.964 85.3918C294.329 85.3918 292.482 86.1183 290.424 87.5714C288.426 89.0246 286.609 90.629 284.975 92.3849C282.856 94.5646 280.948 96.9259 279.253 99.4688C277.618 101.951 276.377 104.222 275.529 106.28C274.803 107.976 274.44 109.368 274.44 110.458C274.44 111.608 274.894 112.184 275.802 112.184ZM301.062 128.44C298.822 128.561 297.035 128.138 295.703 127.169C294.371 126.261 293.705 125.141 293.705 123.809C293.705 122.961 294.038 122.053 294.704 121.084C295.31 120.176 296.279 119.328 297.611 118.541C300.154 117.027 303.03 115.937 306.239 115.271C309.447 114.666 312.687 113.849 315.956 112.819L317.682 109.187C318.408 107.612 319.135 105.584 319.862 103.102C320.588 100.559 321.224 97.9552 321.769 95.2911C322.314 92.6271 322.677 90.3868 322.859 88.5705C321.103 90.3263 319.407 92.0822 317.773 93.838C316.198 95.5333 314.533 97.38 312.778 99.378C311.022 101.376 309.024 103.677 306.783 106.28C306.42 106.704 306.148 106.916 305.966 106.916C305.784 106.916 305.694 106.765 305.694 106.462C305.694 105.735 306.057 104.918 306.783 104.01L313.322 96.1993C314.352 94.9884 315.472 93.7472 316.683 92.4757C317.894 91.2042 319.135 89.9025 320.406 88.5705L322.677 86.2091C322.859 85.1798 323.131 84.09 323.494 82.9396C323.858 81.7892 324.372 80.8205 325.038 80.0334C325.765 79.2463 326.703 78.8527 327.854 78.8527C329.065 78.8527 329.882 79.1857 330.306 79.8518C330.73 80.5178 330.851 81.1838 330.669 81.8498C330.185 82.0314 329.337 82.6672 328.126 83.757C326.915 84.7863 325.735 85.8156 324.584 86.8449C324.645 87.3898 324.675 87.9953 324.675 88.6613C324.675 89.2667 324.675 89.9327 324.675 90.6593C324.675 92.1124 324.614 93.7472 324.493 95.5636C324.433 97.3194 324.251 99.2872 323.948 101.467C323.464 104.676 322.798 107.643 321.95 110.367C323.464 109.58 324.917 108.702 326.31 107.733C327.702 106.704 329.095 105.463 330.487 104.01C330.972 103.465 331.456 102.92 331.941 102.375C332.425 101.83 332.909 101.255 333.394 100.649C333.515 100.528 333.636 100.468 333.757 100.468C333.939 100.468 334.09 100.619 334.211 100.922C334.393 101.225 334.393 101.497 334.211 101.739C333.121 103.253 331.88 104.706 330.487 106.099C329.216 107.37 327.793 108.551 326.219 109.641C324.645 110.67 322.98 111.639 321.224 112.547C319.468 117.027 316.955 120.69 313.686 123.536C310.416 126.442 306.208 128.077 301.062 128.44ZM299.064 126.351C299.73 126.351 300.456 126.261 301.243 126.079C303.363 125.595 305.573 124.505 307.873 122.81C310.174 121.175 312.414 118.602 314.594 115.09C311.93 115.877 309.296 116.573 306.693 117.179C304.029 117.784 301.425 118.813 298.882 120.267C296.884 121.417 295.885 122.719 295.885 124.172C295.885 125.625 296.945 126.351 299.064 126.351Z" fill="#E25A5B"/>
<path d="M355.606 108.56C355.606 110.473 355.16 111.893 354.266 112.82C353.373 113.74 352.13 114.2 350.536 114.2C348.95 114.2 347.71 113.74 346.816 112.82C345.923 111.893 345.476 110.473 345.476 108.56C345.476 108.267 345.476 107.957 345.476 107.63C345.476 107.297 345.476 106.947 345.476 106.58V99.25H347.186V106.73C347.186 107.077 347.186 107.4 347.186 107.7C347.186 108 347.186 108.277 347.186 108.53C347.186 110.01 347.47 111.07 348.036 111.71C348.603 112.343 349.436 112.66 350.536 112.66C351.643 112.66 352.48 112.343 353.046 111.71C353.62 111.07 353.906 110.01 353.906 108.53V99.25H355.606V108.56ZM357.796 114V99.25H359.476V114H357.796ZM368.434 98.37L362.134 115.55H360.694L367.004 98.37H368.434ZM380.049 108.56C380.049 110.473 379.603 111.893 378.709 112.82C377.816 113.74 376.573 114.2 374.979 114.2C373.393 114.2 372.153 113.74 371.259 112.82C370.366 111.893 369.919 110.473 369.919 108.56C369.919 108.267 369.919 107.957 369.919 107.63C369.919 107.297 369.919 106.947 369.919 106.58V99.25H371.629V106.73C371.629 107.077 371.629 107.4 371.629 107.7C371.629 108 371.629 108.277 371.629 108.53C371.629 110.01 371.913 111.07 372.479 111.71C373.046 112.343 373.879 112.66 374.979 112.66C376.086 112.66 376.923 112.343 377.489 111.71C378.063 111.07 378.349 110.01 378.349 108.53V99.25H380.049V108.56ZM386.159 106.01L386.149 107.4L381.449 99.25H383.359L387.269 106.23H386.119L389.999 99.25H391.909L387.249 107.4L387.239 106.01L392.059 114H390.139L386.089 107.17H387.299L383.239 114H381.329L386.159 106.01ZM329.555 134V119.25H333.255C334.229 119.25 335.105 119.42 335.885 119.76C336.672 120.1 337.342 120.59 337.895 121.23C338.455 121.863 338.885 122.637 339.185 123.55C339.485 124.457 339.635 125.48 339.635 126.62C339.635 127.76 339.485 128.787 339.185 129.7C338.885 130.607 338.455 131.38 337.895 132.02C337.342 132.66 336.672 133.15 335.885 133.49C335.105 133.83 334.229 134 333.255 134H329.555ZM331.275 133.47L330.505 132.5H333.055C334.002 132.5 334.839 132.263 335.565 131.79C336.299 131.31 336.872 130.63 337.285 129.75C337.699 128.87 337.905 127.827 337.905 126.62C337.905 125.407 337.699 124.363 337.285 123.49C336.872 122.61 336.299 121.933 335.565 121.46C334.839 120.987 334.002 120.75 333.055 120.75H330.505L331.275 119.78V133.47ZM342.295 120.75L343.065 119.78V126.44L342.645 125.85H348.305V127.35H342.645L343.065 126.76V133.47L342.295 132.5H349.415V134H341.355V119.25H349.415V120.75H342.295ZM355.994 134.2C354.974 134.2 354.101 134.04 353.374 133.72C352.654 133.393 352.101 132.903 351.714 132.25C351.328 131.597 351.134 130.783 351.134 129.81C351.134 129.677 351.134 129.563 351.134 129.47C351.134 129.377 351.134 129.263 351.134 129.13H352.844C352.844 129.257 352.844 129.363 352.844 129.45C352.844 129.537 352.844 129.647 352.844 129.78C352.844 130.8 353.111 131.537 353.644 131.99C354.178 132.437 354.954 132.66 355.974 132.66C357.028 132.66 357.824 132.48 358.364 132.12C358.904 131.76 359.174 131.177 359.174 130.37C359.174 129.803 359.018 129.333 358.704 128.96C358.398 128.58 357.971 128.26 357.424 128C356.878 127.733 356.241 127.49 355.514 127.27C354.694 127.017 353.961 126.697 353.314 126.31C352.674 125.923 352.168 125.447 351.794 124.88C351.428 124.307 351.244 123.61 351.244 122.79C351.244 121.99 351.438 121.313 351.824 120.76C352.218 120.207 352.764 119.787 353.464 119.5C354.164 119.213 354.978 119.07 355.904 119.07C356.884 119.07 357.734 119.223 358.454 119.53C359.181 119.83 359.741 120.29 360.134 120.91C360.534 121.523 360.734 122.297 360.734 123.23C360.734 123.377 360.734 123.503 360.734 123.61C360.734 123.71 360.734 123.833 360.734 123.98H359.024C359.024 123.853 359.024 123.74 359.024 123.64C359.024 123.54 359.024 123.427 359.024 123.3C359.024 122.327 358.761 121.637 358.234 121.23C357.708 120.817 356.941 120.61 355.934 120.61C354.968 120.61 354.221 120.78 353.694 121.12C353.168 121.46 352.904 122.017 352.904 122.79C352.904 123.37 353.064 123.85 353.384 124.23C353.711 124.603 354.154 124.923 354.714 125.19C355.274 125.45 355.914 125.7 356.634 125.94C357.508 126.227 358.258 126.553 358.884 126.92C359.518 127.28 360.001 127.73 360.334 128.27C360.674 128.81 360.844 129.49 360.844 130.31C360.844 131.13 360.648 131.83 360.254 132.41C359.868 132.99 359.311 133.433 358.584 133.74C357.864 134.047 357.001 134.2 355.994 134.2ZM362.643 134V119.25H364.323V134H362.643ZM372.071 134.2C370.971 134.2 369.971 133.9 369.071 133.3C368.171 132.7 367.454 131.837 366.921 130.71C366.388 129.583 366.121 128.227 366.121 126.64C366.121 125.053 366.391 123.697 366.931 122.57C367.471 121.443 368.201 120.58 369.121 119.98C370.048 119.373 371.084 119.07 372.231 119.07C373.164 119.07 373.954 119.233 374.601 119.56C375.254 119.88 375.784 120.297 376.191 120.81C376.604 121.317 376.904 121.857 377.091 122.43C377.278 122.997 377.371 123.53 377.371 124.03C377.371 124.05 377.371 124.07 377.371 124.09C377.371 124.11 377.371 124.13 377.371 124.15H375.711C375.711 124.13 375.711 124.11 375.711 124.09C375.711 124.07 375.711 124.05 375.711 124.03C375.711 123.63 375.641 123.23 375.501 122.83C375.368 122.423 375.158 122.057 374.871 121.73C374.584 121.397 374.221 121.13 373.781 120.93C373.348 120.73 372.831 120.63 372.231 120.63C371.424 120.63 370.688 120.85 370.021 121.29C369.361 121.73 368.831 122.397 368.431 123.29C368.038 124.177 367.841 125.293 367.841 126.64C367.841 127.673 367.951 128.57 368.171 129.33C368.391 130.083 368.694 130.707 369.081 131.2C369.468 131.693 369.918 132.06 370.431 132.3C370.951 132.54 371.511 132.66 372.111 132.66C372.904 132.66 373.554 132.523 374.061 132.25C374.574 131.977 374.971 131.637 375.251 131.23C375.531 130.817 375.711 130.41 375.791 130.01V128.46H372.181V127.03H377.331V134H376.061L375.971 132.36C375.918 132.46 375.808 132.61 375.641 132.81C375.474 133.01 375.238 133.217 374.931 133.43C374.631 133.643 374.244 133.827 373.771 133.98C373.298 134.127 372.731 134.2 372.071 134.2ZM381.153 134H379.493V119.25H382.283L388.543 133.02L388.413 133.1V119.25H390.073V134H387.243L381.003 120.25L381.153 120.18V134ZM393.131 120.75L393.901 119.78V126.44L393.481 125.85H399.141V127.35H393.481L393.901 126.76V133.47L393.131 132.5H400.251V134H392.191V119.25H400.251V120.75H393.131ZM402.37 134V119.25H407.49C408.843 119.25 409.873 119.57 410.58 120.21C411.287 120.85 411.64 121.827 411.64 123.14C411.64 123.927 411.49 124.597 411.19 125.15C410.897 125.697 410.54 126.12 410.12 126.42C409.707 126.72 409.323 126.89 408.97 126.93C409.33 126.957 409.683 127.057 410.03 127.23C410.383 127.397 410.677 127.657 410.91 128.01C411.143 128.363 411.26 128.837 411.26 129.43C411.26 129.977 411.26 130.537 411.26 131.11C411.26 131.677 411.26 132.237 411.26 132.79C411.26 133.077 411.283 133.333 411.33 133.56C411.377 133.78 411.43 133.927 411.49 134H409.77C409.723 133.913 409.677 133.763 409.63 133.55C409.583 133.337 409.56 133.083 409.56 132.79C409.56 132.277 409.56 131.753 409.56 131.22C409.56 130.687 409.56 130.16 409.56 129.64C409.56 128.987 409.353 128.5 408.94 128.18C408.527 127.86 407.943 127.7 407.19 127.7H403.56L404.04 127.05V134H402.37ZM404.04 126.91L403.56 126.2H407.21C407.703 126.2 408.15 126.08 408.55 125.84C408.957 125.593 409.28 125.253 409.52 124.82C409.767 124.38 409.89 123.867 409.89 123.28C409.89 122.367 409.65 121.717 409.17 121.33C408.69 120.943 407.997 120.75 407.09 120.75H403.52L404.04 120.01V126.91Z" fill="#B3D3E8"/>
</svg>
